<svg width="50" height="50" viewBox="0 0 50 50" fill="none" xmlns="http://www.w3.org/2000/svg">
<path d="M25 45.8333C36.5059 45.8333 45.8333 36.5059 45.8333 25C45.8333 13.494 36.5059 4.16663 25 4.16663C13.4941 4.16663 4.16666 13.494 4.16666 25C4.16666 36.5059 13.4941 45.8333 25 45.8333Z" fill="white"/>
<path fill-rule="evenodd" clip-rule="evenodd" d="M19.557 14.8791C19.557 16.176 18.5695 17.2256 17.0252 17.2256C15.541 17.2256 14.5534 16.176 14.5841 14.8791C14.5534 13.5191 15.5409 12.5 17.0548 12.5C18.5695 12.5 19.5274 13.5191 19.557 14.8791ZM14.7082 34.1866V19.0794H19.4032V34.1855L14.7082 34.1866Z" fill="#424242"/>
<path fill-rule="evenodd" clip-rule="evenodd" d="M23.1659 23.9007C23.1659 22.0164 23.1038 20.4099 23.0417 19.0815H27.1199L27.3366 21.1511H27.4294C28.0473 20.1932 29.5915 18.7424 32.0938 18.7424C35.1825 18.7424 37.4995 20.7815 37.4995 25.2282V34.1886H32.8044V25.8165C32.8044 23.8692 32.1254 22.5416 30.4263 22.5416C29.1284 22.5416 28.3566 23.4374 28.0482 24.3018C27.924 24.6113 27.8629 25.043 27.8629 25.4765V34.1886H23.1678V23.9007H23.1659Z" fill="#424242"/>
</svg>
