<svg width="50" height="50" viewBox="0 0 50 50" fill="none" xmlns="http://www.w3.org/2000/svg">
<path d="M25 45.8333C36.506 45.8333 45.8334 36.5059 45.8334 25C45.8334 13.494 36.506 4.16663 25 4.16663C13.4941 4.16663 4.16669 13.494 4.16669 25C4.16669 36.5059 13.4941 45.8333 25 45.8333Z" fill="white"/>
<path fill-rule="evenodd" clip-rule="evenodd" d="M37.5 16.9882C36.5809 17.3965 35.5918 17.6715 34.5544 17.7957C35.6134 17.1607 36.4268 16.1558 36.8092 14.9584C35.8193 15.5466 34.7202 15.9724 33.5528 16.2033C32.617 15.2067 31.2829 14.5834 29.8089 14.5834C26.9766 14.5834 24.68 16.8799 24.68 19.7122C24.68 20.1138 24.7258 20.5055 24.8133 20.8813C20.5503 20.668 16.7714 18.6256 14.2416 15.5224C13.7999 16.2799 13.5474 17.1607 13.5474 18.1007C13.5474 19.8797 14.4516 21.4496 15.829 22.3695C14.9873 22.3429 14.1974 22.112 13.5049 21.7279V21.792C13.5049 24.2777 15.274 26.35 17.6189 26.8225C17.1889 26.9392 16.7355 27.0025 16.2681 27.0025C15.9373 27.0025 15.6156 26.97 15.3023 26.91C15.9548 28.9474 17.8497 30.4307 20.0936 30.4723C18.3387 31.8472 16.1273 32.668 13.7241 32.668C13.3091 32.668 12.9008 32.6438 12.5 32.5955C14.7699 34.0505 17.4655 34.9004 20.362 34.9004C29.7955 34.9004 34.9544 27.085 34.9544 20.308C34.9544 20.0855 34.9502 19.8639 34.9394 19.6447C35.9426 18.9197 36.8125 18.0165 37.5 16.9882Z" fill="#424242"/>
</svg>
