<svg width="55" height="55" viewBox="0 0 55 55" fill="none" xmlns="http://www.w3.org/2000/svg">
<path d="M27.5 50.4167C40.1565 50.4167 50.4166 40.1566 50.4166 27.5C50.4166 14.8435 40.1565 4.58337 27.5 4.58337C14.8435 4.58337 4.58331 14.8435 4.58331 27.5C4.58331 40.1566 14.8435 50.4167 27.5 50.4167Z" fill="white"/>
<path fill-rule="evenodd" clip-rule="evenodd" d="M38.934 18.9606C39.3325 19.4077 39.6197 19.9642 39.7669 20.5746C40.6147 24.4029 40.4187 30.4492 39.7834 34.4253C39.6362 35.0357 39.349 35.5922 38.9505 36.0393C38.5519 36.4865 38.0559 36.8087 37.5118 36.9738C35.5201 37.5833 27.5035 37.5833 27.5035 37.5833C27.5035 37.5833 19.487 37.5833 17.4952 36.9738C16.9512 36.8087 16.4551 36.4865 16.0566 36.0393C15.658 35.5922 15.3708 35.0357 15.2236 34.4253C14.3709 30.6136 14.6047 24.5636 15.2072 20.5931C15.3544 19.9826 15.6416 19.4261 16.0401 18.979C16.4387 18.5318 16.9347 18.2097 17.4787 18.0445C19.4705 17.4351 27.487 17.4166 27.487 17.4166C27.487 17.4166 35.5036 17.4166 37.4954 18.0261C38.0394 18.1912 38.5354 18.5135 38.934 18.9606ZM31.5858 27.5L24.9356 31.8213V23.1785L31.5858 27.5Z" fill="#424242"/>
</svg>
